<svg width="220" height="112" viewBox="0 0 220 112" fill="none" xmlns="http://www.w3.org/2000/svg">
<path d="M92.9077 85.9697C93.0204 86.3816 93.0769 86.6648 93.0769 86.8193C93.0769 88.1581 92.2308 88.8276 90.5385 88.8276H86.2231C84.5873 88.8276 83.5719 88.0809 83.1769 86.5876L79.7923 73.7655H62.4462L58.9769 86.5876C58.582 88.0809 57.5666 88.8276 55.9308 88.8276H51.6154C49.9231 88.8276 49.0769 88.1581 49.0769 86.8193C49.0769 86.6648 49.1334 86.3816 49.2462 85.9697L65.1539 32.2869C65.5488 30.845 66.5923 30.1241 68.2846 30.1241H73.8692C75.5615 30.1241 76.6051 30.845 77 32.2869L92.9077 85.9697ZM63.6308 69.131H78.5231L71.0769 41.3241L63.6308 69.131ZM135.476 84.1931C136.266 84.1931 136.943 84.4248 137.507 84.8883C138.071 85.3002 138.353 85.8409 138.353 86.5104C138.353 87.1798 138.071 87.7462 137.507 88.2097C136.943 88.6216 136.266 88.8276 135.476 88.8276H102.73C101.94 88.8276 101.263 88.5702 100.699 88.0552C100.135 87.5402 99.8527 86.9222 99.8527 86.2014V32.7503C99.8527 32.0295 100.135 31.4116 100.699 30.8966C101.263 30.3816 101.94 30.1241 102.73 30.1241H107.807C108.596 30.1241 109.273 30.3816 109.837 30.8966C110.402 31.4116 110.683 32.0295 110.683 32.7503V84.1931H135.476ZM160.411 86.2014C160.411 86.9222 160.129 87.5402 159.565 88.0552C159.001 88.5702 158.324 88.8276 157.534 88.8276H152.457C151.667 88.8276 150.99 88.5702 150.426 88.0552C149.862 87.5402 149.58 86.9222 149.58 86.2014V35.0676C149.58 34.9131 149.58 34.8102 149.58 34.7586H137.396C136.606 34.7586 135.929 34.5526 135.365 34.1407C134.801 33.6772 134.519 33.1109 134.519 32.4414C134.519 31.7719 134.801 31.2312 135.365 30.8193C135.929 30.3559 136.606 30.1241 137.396 30.1241H172.596C173.385 30.1241 174.062 30.3559 174.626 30.8193C175.19 31.2312 175.472 31.7719 175.472 32.4414C175.472 33.1109 175.19 33.6772 174.626 34.1407C174.062 34.5526 173.385 34.7586 172.596 34.7586H160.411V35.0676V86.2014ZM215.452 85.9697C215.564 86.3816 215.621 86.6648 215.621 86.8193C215.621 88.1581 214.775 88.8276 213.083 88.8276H208.767C207.131 88.8276 206.115 88.0809 205.721 86.5876L202.336 73.7655H184.99L181.521 86.5876C181.126 88.0809 180.11 88.8276 178.474 88.8276H174.159C172.467 88.8276 171.621 88.1581 171.621 86.8193C171.621 86.6648 171.677 86.3816 171.79 85.9697L187.697 32.2869C188.092 30.845 189.136 30.1241 190.828 30.1241H196.413C198.105 30.1241 199.149 30.845 199.544 32.2869L215.452 85.9697ZM186.174 69.131H201.067L193.621 41.3241L186.174 69.131Z" fill="#79AA2D"/>
<path d="M35.9615 46.3448C41.803 46.3448 46.5385 42.022 46.5385 36.6896C46.5385 31.3572 41.803 27.0344 35.9615 27.0344C30.1201 27.0344 25.3846 31.3572 25.3846 36.6896C25.3846 42.022 30.1201 46.3448 35.9615 46.3448Z" fill="#FFD500"/>
<path d="M11.6346 42.4828C14.5554 42.4828 16.9231 40.3214 16.9231 37.6552C16.9231 34.989 14.5554 32.8276 11.6346 32.8276C8.71389 32.8276 6.34616 34.989 6.34616 37.6552C6.34616 40.3214 8.71389 42.4828 11.6346 42.4828Z" fill="#A29F9D"/>
<path d="M21.1538 88.8276C32.8368 88.8276 42.3077 80.1821 42.3077 69.5173C42.3077 58.8524 32.8368 50.2069 21.1538 50.2069C9.4709 50.2069 0 58.8524 0 69.5173C0 80.1821 9.4709 88.8276 21.1538 88.8276Z" fill="white"/>
<path d="M21.1539 84.9655C30.5002 84.9655 38.0769 78.0491 38.0769 69.5172C38.0769 60.9854 30.5002 54.069 21.1539 54.069C11.8075 54.069 4.23077 60.9854 4.23077 69.5172C4.23077 78.0491 11.8075 84.9655 21.1539 84.9655Z" stroke="#FDBD37" stroke-opacity="0.9" stroke-width="4"/>
</svg>
